<svg width="18" height="18" viewBox="0 0 18 18" fill="none" xmlns="http://www.w3.org/2000/svg">
<g clip-path="url(#clip0_47_273)">
<path d="M12.6 4.49961C12.6 4.26091 12.6948 4.032 12.8636 3.86321C13.0324 3.69443 13.2613 3.59961 13.5 3.59961C13.7387 3.59961 13.9676 3.69443 14.1364 3.86321C14.3052 4.032 14.4 4.26091 14.4 4.49961C14.4 4.7383 14.3052 4.96722 14.1364 5.13601C13.9676 5.30479 13.7387 5.39961 13.5 5.39961C13.2613 5.39961 13.0324 5.30479 12.8636 5.13601C12.6948 4.96722 12.6 4.7383 12.6 4.49961Z" fill="white"/>
<path fill-rule="evenodd" clip-rule="evenodd" d="M9.00001 4.72461C7.86621 4.72461 6.77884 5.17501 5.97712 5.97673C5.17541 6.77845 4.72501 7.86581 4.72501 8.99961C4.72501 10.1334 5.17541 11.2208 5.97712 12.0225C6.77884 12.8242 7.86621 13.2746 9.00001 13.2746C10.1338 13.2746 11.2212 12.8242 12.0229 12.0225C12.8246 11.2208 13.275 10.1334 13.275 8.99961C13.275 7.86581 12.8246 6.77845 12.0229 5.97673C11.2212 5.17501 10.1338 4.72461 9.00001 4.72461ZM6.07501 8.99961C6.07501 8.22385 6.38318 7.47987 6.93172 6.93132C7.48026 6.38278 8.22425 6.07461 9.00001 6.07461C9.77576 6.07461 10.5197 6.38278 11.0683 6.93132C11.6168 7.47987 11.925 8.22385 11.925 8.99961C11.925 9.77537 11.6168 10.5194 11.0683 11.0679C10.5197 11.6164 9.77576 11.9246 9.00001 11.9246C8.22425 11.9246 7.48026 11.6164 6.93172 11.0679C6.38318 10.5194 6.07501 9.77537 6.07501 8.99961Z" fill="white"/>
<path fill-rule="evenodd" clip-rule="evenodd" d="M13.7322 0.749895C10.5871 0.401077 7.41297 0.401077 4.26781 0.749895C2.45701 0.952395 0.994509 2.3789 0.782109 4.19869C0.409606 7.38886 0.409606 10.6115 0.782109 13.8017C0.994509 15.6215 2.45611 17.048 4.26781 17.2505C7.41301 17.5986 10.587 17.5986 13.7322 17.2505C15.543 17.048 17.0055 15.6215 17.2179 13.8017C17.5904 10.6115 17.5904 7.38886 17.2179 4.19869C17.0055 2.3789 15.5439 0.952395 13.7322 0.749895ZM4.41721 2.09089C7.46307 1.75313 10.5369 1.75313 13.5828 2.09089C14.7798 2.22589 15.7383 3.17 15.8778 4.3562C16.2388 7.44167 16.2388 10.5587 15.8778 13.6442C15.8057 14.2247 15.5399 14.764 15.1235 15.1749C14.707 15.5857 14.1643 15.8442 13.5828 15.9086C10.5369 16.2464 7.46307 16.2464 4.41721 15.9086C3.83576 15.8442 3.29298 15.5857 2.87655 15.1749C2.46012 14.764 2.19436 14.2247 2.12221 13.6442C1.76118 10.5587 1.76118 7.44167 2.12221 4.3562C2.19436 3.77566 2.46012 3.2364 2.87655 2.82552C3.29298 2.41465 3.83576 2.15525 4.41721 2.09089Z" fill="white"/>
</g>
<defs>
<clipPath id="clip0_47_273">
<rect width="18" height="18" fill="white"/>
</clipPath>
</defs>
</svg>
