<svg width="15" height="15" viewBox="0 0 15 15" fill="none" xmlns="http://www.w3.org/2000/svg">
<g clip-path="url(#clip0_47_269)">
<path d="M14.5001 3.12512V11.8751C14.5001 12.3717 14.1217 12.7501 13.6251 12.7501H12.7501V4.80906L7.50009 8.58031L2.25009 4.80906V12.7501H1.37509C0.878529 12.7501 0.500092 12.3717 0.500092 11.8751V3.12512C0.500092 2.87662 0.593717 2.65787 0.750779 2.50299C0.832535 2.42109 0.929948 2.35649 1.03721 2.31304C1.14447 2.2696 1.25938 2.2482 1.37509 2.25012H1.6669L7.50009 6.47943L13.3333 2.25012H13.6251C13.8736 2.25012 14.0923 2.34374 14.2494 2.50299C14.4065 2.65787 14.5001 2.87662 14.5001 3.12512Z" fill="white"/>
</g>
<defs>
<clipPath id="clip0_47_269">
<rect width="14" height="14" fill="white" transform="translate(0.5 0.5)"/>
</clipPath>
</defs>
</svg>
